<?xml version="1.0" encoding="UTF-8"?>
<svg xmlns="http://www.w3.org/2000/svg" viewBox="0 0 264 264" width="264" height="264" role="img" aria-label="Expo Go QR code">
  <rect width="264" height="264" fill="#ffffff"/>
  <rect x="32" y="32" width="8" height="8" fill="#000000"/><rect x="40" y="32" width="8" height="8" fill="#000000"/><rect x="48" y="32" width="8" height="8" fill="#000000"/><rect x="56" y="32" width="8" height="8" fill="#000000"/><rect x="64" y="32" width="8" height="8" fill="#000000"/><rect x="72" y="32" width="8" height="8" fill="#000000"/><rect x="80" y="32" width="8" height="8" fill="#000000"/><rect x="96" y="32" width="8" height="8" fill="#000000"/><rect x="104" y="32" width="8" height="8" fill="#000000"/><rect x="112" y="32" width="8" height="8" fill="#000000"/><rect x="120" y="32" width="8" height="8" fill="#000000"/><rect x="136" y="32" width="8" height="8" fill="#000000"/><rect x="160" y="32" width="8" height="8" fill="#000000"/><rect x="176" y="32" width="8" height="8" fill="#000000"/><rect x="184" y="32" width="8" height="8" fill="#000000"/><rect x="192" y="32" width="8" height="8" fill="#000000"/><rect x="200" y="32" width="8" height="8" fill="#000000"/><rect x="208" y="32" width="8" height="8" fill="#000000"/><rect x="216" y="32" width="8" height="8" fill="#000000"/><rect x="224" y="32" width="8" height="8" fill="#000000"/><rect x="32" y="40" width="8" height="8" fill="#000000"/><rect x="80" y="40" width="8" height="8" fill="#000000"/><rect x="120" y="40" width="8" height="8" fill="#000000"/><rect x="128" y="40" width="8" height="8" fill="#000000"/><rect x="136" y="40" width="8" height="8" fill="#000000"/><rect x="144" y="40" width="8" height="8" fill="#000000"/><rect x="160" y="40" width="8" height="8" fill="#000000"/><rect x="176" y="40" width="8" height="8" fill="#000000"/><rect x="224" y="40" width="8" height="8" fill="#000000"/><rect x="32" y="48" width="8" height="8" fill="#000000"/><rect x="48" y="48" width="8" height="8" fill="#000000"/><rect x="56" y="48" width="8" height="8" fill="#000000"/><rect x="64" y="48" width="8" height="8" fill="#000000"/><rect x="80" y="48" width="8" height="8" fill="#000000"/><rect x="104" y="48" width="8" height="8" fill="#000000"/><rect x="120" y="48" width="8" height="8" fill="#000000"/><rect x="136" y="48" width="8" height="8" fill="#000000"/><rect x="144" y="48" width="8" height="8" fill="#000000"/><rect x="152" y="48" width="8" height="8" fill="#000000"/><rect x="160" y="48" width="8" height="8" fill="#000000"/><rect x="176" y="48" width="8" height="8" fill="#000000"/><rect x="192" y="48" width="8" height="8" fill="#000000"/><rect x="200" y="48" width="8" height="8" fill="#000000"/><rect x="208" y="48" width="8" height="8" fill="#000000"/><rect x="224" y="48" width="8" height="8" fill="#000000"/><rect x="32" y="56" width="8" height="8" fill="#000000"/><rect x="48" y="56" width="8" height="8" fill="#000000"/><rect x="56" y="56" width="8" height="8" fill="#000000"/><rect x="64" y="56" width="8" height="8" fill="#000000"/><rect x="80" y="56" width="8" height="8" fill="#000000"/><rect x="112" y="56" width="8" height="8" fill="#000000"/><rect x="120" y="56" width="8" height="8" fill="#000000"/><rect x="136" y="56" width="8" height="8" fill="#000000"/><rect x="144" y="56" width="8" height="8" fill="#000000"/><rect x="176" y="56" width="8" height="8" fill="#000000"/><rect x="192" y="56" width="8" height="8" fill="#000000"/><rect x="200" y="56" width="8" height="8" fill="#000000"/><rect x="208" y="56" width="8" height="8" fill="#000000"/><rect x="224" y="56" width="8" height="8" fill="#000000"/><rect x="32" y="64" width="8" height="8" fill="#000000"/><rect x="48" y="64" width="8" height="8" fill="#000000"/><rect x="56" y="64" width="8" height="8" fill="#000000"/><rect x="64" y="64" width="8" height="8" fill="#000000"/><rect x="80" y="64" width="8" height="8" fill="#000000"/><rect x="112" y="64" width="8" height="8" fill="#000000"/><rect x="120" y="64" width="8" height="8" fill="#000000"/><rect x="128" y="64" width="8" height="8" fill="#000000"/><rect x="136" y="64" width="8" height="8" fill="#000000"/><rect x="176" y="64" width="8" height="8" fill="#000000"/><rect x="192" y="64" width="8" height="8" fill="#000000"/><rect x="200" y="64" width="8" height="8" fill="#000000"/><rect x="208" y="64" width="8" height="8" fill="#000000"/><rect x="224" y="64" width="8" height="8" fill="#000000"/><rect x="32" y="72" width="8" height="8" fill="#000000"/><rect x="80" y="72" width="8" height="8" fill="#000000"/><rect x="104" y="72" width="8" height="8" fill="#000000"/><rect x="120" y="72" width="8" height="8" fill="#000000"/><rect x="160" y="72" width="8" height="8" fill="#000000"/><rect x="176" y="72" width="8" height="8" fill="#000000"/><rect x="224" y="72" width="8" height="8" fill="#000000"/><rect x="32" y="80" width="8" height="8" fill="#000000"/><rect x="40" y="80" width="8" height="8" fill="#000000"/><rect x="48" y="80" width="8" height="8" fill="#000000"/><rect x="56" y="80" width="8" height="8" fill="#000000"/><rect x="64" y="80" width="8" height="8" fill="#000000"/><rect x="72" y="80" width="8" height="8" fill="#000000"/><rect x="80" y="80" width="8" height="8" fill="#000000"/><rect x="96" y="80" width="8" height="8" fill="#000000"/><rect x="112" y="80" width="8" height="8" fill="#000000"/><rect x="128" y="80" width="8" height="8" fill="#000000"/><rect x="144" y="80" width="8" height="8" fill="#000000"/><rect x="160" y="80" width="8" height="8" fill="#000000"/><rect x="176" y="80" width="8" height="8" fill="#000000"/><rect x="184" y="80" width="8" height="8" fill="#000000"/><rect x="192" y="80" width="8" height="8" fill="#000000"/><rect x="200" y="80" width="8" height="8" fill="#000000"/><rect x="208" y="80" width="8" height="8" fill="#000000"/><rect x="216" y="80" width="8" height="8" fill="#000000"/><rect x="224" y="80" width="8" height="8" fill="#000000"/><rect x="96" y="88" width="8" height="8" fill="#000000"/><rect x="104" y="88" width="8" height="8" fill="#000000"/><rect x="128" y="88" width="8" height="8" fill="#000000"/><rect x="136" y="88" width="8" height="8" fill="#000000"/><rect x="152" y="88" width="8" height="8" fill="#000000"/><rect x="160" y="88" width="8" height="8" fill="#000000"/><rect x="32" y="96" width="8" height="8" fill="#000000"/><rect x="40" y="96" width="8" height="8" fill="#000000"/><rect x="56" y="96" width="8" height="8" fill="#000000"/><rect x="64" y="96" width="8" height="8" fill="#000000"/><rect x="80" y="96" width="8" height="8" fill="#000000"/><rect x="104" y="96" width="8" height="8" fill="#000000"/><rect x="128" y="96" width="8" height="8" fill="#000000"/><rect x="160" y="96" width="8" height="8" fill="#000000"/><rect x="176" y="96" width="8" height="8" fill="#000000"/><rect x="224" y="96" width="8" height="8" fill="#000000"/><rect x="32" y="104" width="8" height="8" fill="#000000"/><rect x="40" y="104" width="8" height="8" fill="#000000"/><rect x="48" y="104" width="8" height="8" fill="#000000"/><rect x="56" y="104" width="8" height="8" fill="#000000"/><rect x="112" y="104" width="8" height="8" fill="#000000"/><rect x="136" y="104" width="8" height="8" fill="#000000"/><rect x="152" y="104" width="8" height="8" fill="#000000"/><rect x="160" y="104" width="8" height="8" fill="#000000"/><rect x="192" y="104" width="8" height="8" fill="#000000"/><rect x="208" y="104" width="8" height="8" fill="#000000"/><rect x="216" y="104" width="8" height="8" fill="#000000"/><rect x="32" y="112" width="8" height="8" fill="#000000"/><rect x="48" y="112" width="8" height="8" fill="#000000"/><rect x="64" y="112" width="8" height="8" fill="#000000"/><rect x="72" y="112" width="8" height="8" fill="#000000"/><rect x="80" y="112" width="8" height="8" fill="#000000"/><rect x="88" y="112" width="8" height="8" fill="#000000"/><rect x="96" y="112" width="8" height="8" fill="#000000"/><rect x="104" y="112" width="8" height="8" fill="#000000"/><rect x="128" y="112" width="8" height="8" fill="#000000"/><rect x="136" y="112" width="8" height="8" fill="#000000"/><rect x="144" y="112" width="8" height="8" fill="#000000"/><rect x="152" y="112" width="8" height="8" fill="#000000"/><rect x="200" y="112" width="8" height="8" fill="#000000"/><rect x="224" y="112" width="8" height="8" fill="#000000"/><rect x="32" y="120" width="8" height="8" fill="#000000"/><rect x="40" y="120" width="8" height="8" fill="#000000"/><rect x="160" y="120" width="8" height="8" fill="#000000"/><rect x="168" y="120" width="8" height="8" fill="#000000"/><rect x="208" y="120" width="8" height="8" fill="#000000"/><rect x="216" y="120" width="8" height="8" fill="#000000"/><rect x="224" y="120" width="8" height="8" fill="#000000"/><rect x="40" y="128" width="8" height="8" fill="#000000"/><rect x="48" y="128" width="8" height="8" fill="#000000"/><rect x="56" y="128" width="8" height="8" fill="#000000"/><rect x="72" y="128" width="8" height="8" fill="#000000"/><rect x="80" y="128" width="8" height="8" fill="#000000"/><rect x="88" y="128" width="8" height="8" fill="#000000"/><rect x="104" y="128" width="8" height="8" fill="#000000"/><rect x="112" y="128" width="8" height="8" fill="#000000"/><rect x="144" y="128" width="8" height="8" fill="#000000"/><rect x="152" y="128" width="8" height="8" fill="#000000"/><rect x="168" y="128" width="8" height="8" fill="#000000"/><rect x="176" y="128" width="8" height="8" fill="#000000"/><rect x="216" y="128" width="8" height="8" fill="#000000"/><rect x="32" y="136" width="8" height="8" fill="#000000"/><rect x="72" y="136" width="8" height="8" fill="#000000"/><rect x="88" y="136" width="8" height="8" fill="#000000"/><rect x="112" y="136" width="8" height="8" fill="#000000"/><rect x="128" y="136" width="8" height="8" fill="#000000"/><rect x="152" y="136" width="8" height="8" fill="#000000"/><rect x="168" y="136" width="8" height="8" fill="#000000"/><rect x="184" y="136" width="8" height="8" fill="#000000"/><rect x="192" y="136" width="8" height="8" fill="#000000"/><rect x="208" y="136" width="8" height="8" fill="#000000"/><rect x="216" y="136" width="8" height="8" fill="#000000"/><rect x="32" y="144" width="8" height="8" fill="#000000"/><rect x="40" y="144" width="8" height="8" fill="#000000"/><rect x="56" y="144" width="8" height="8" fill="#000000"/><rect x="72" y="144" width="8" height="8" fill="#000000"/><rect x="80" y="144" width="8" height="8" fill="#000000"/><rect x="88" y="144" width="8" height="8" fill="#000000"/><rect x="96" y="144" width="8" height="8" fill="#000000"/><rect x="104" y="144" width="8" height="8" fill="#000000"/><rect x="136" y="144" width="8" height="8" fill="#000000"/><rect x="152" y="144" width="8" height="8" fill="#000000"/><rect x="160" y="144" width="8" height="8" fill="#000000"/><rect x="176" y="144" width="8" height="8" fill="#000000"/><rect x="200" y="144" width="8" height="8" fill="#000000"/><rect x="216" y="144" width="8" height="8" fill="#000000"/><rect x="224" y="144" width="8" height="8" fill="#000000"/><rect x="32" y="152" width="8" height="8" fill="#000000"/><rect x="56" y="152" width="8" height="8" fill="#000000"/><rect x="72" y="152" width="8" height="8" fill="#000000"/><rect x="88" y="152" width="8" height="8" fill="#000000"/><rect x="104" y="152" width="8" height="8" fill="#000000"/><rect x="112" y="152" width="8" height="8" fill="#000000"/><rect x="128" y="152" width="8" height="8" fill="#000000"/><rect x="144" y="152" width="8" height="8" fill="#000000"/><rect x="152" y="152" width="8" height="8" fill="#000000"/><rect x="168" y="152" width="8" height="8" fill="#000000"/><rect x="176" y="152" width="8" height="8" fill="#000000"/><rect x="208" y="152" width="8" height="8" fill="#000000"/><rect x="216" y="152" width="8" height="8" fill="#000000"/><rect x="224" y="152" width="8" height="8" fill="#000000"/><rect x="32" y="160" width="8" height="8" fill="#000000"/><rect x="48" y="160" width="8" height="8" fill="#000000"/><rect x="56" y="160" width="8" height="8" fill="#000000"/><rect x="80" y="160" width="8" height="8" fill="#000000"/><rect x="88" y="160" width="8" height="8" fill="#000000"/><rect x="104" y="160" width="8" height="8" fill="#000000"/><rect x="120" y="160" width="8" height="8" fill="#000000"/><rect x="128" y="160" width="8" height="8" fill="#000000"/><rect x="136" y="160" width="8" height="8" fill="#000000"/><rect x="144" y="160" width="8" height="8" fill="#000000"/><rect x="160" y="160" width="8" height="8" fill="#000000"/><rect x="168" y="160" width="8" height="8" fill="#000000"/><rect x="176" y="160" width="8" height="8" fill="#000000"/><rect x="184" y="160" width="8" height="8" fill="#000000"/><rect x="192" y="160" width="8" height="8" fill="#000000"/><rect x="200" y="160" width="8" height="8" fill="#000000"/><rect x="208" y="160" width="8" height="8" fill="#000000"/><rect x="224" y="160" width="8" height="8" fill="#000000"/><rect x="96" y="168" width="8" height="8" fill="#000000"/><rect x="104" y="168" width="8" height="8" fill="#000000"/><rect x="112" y="168" width="8" height="8" fill="#000000"/><rect x="120" y="168" width="8" height="8" fill="#000000"/><rect x="144" y="168" width="8" height="8" fill="#000000"/><rect x="160" y="168" width="8" height="8" fill="#000000"/><rect x="192" y="168" width="8" height="8" fill="#000000"/><rect x="200" y="168" width="8" height="8" fill="#000000"/><rect x="216" y="168" width="8" height="8" fill="#000000"/><rect x="32" y="176" width="8" height="8" fill="#000000"/><rect x="40" y="176" width="8" height="8" fill="#000000"/><rect x="48" y="176" width="8" height="8" fill="#000000"/><rect x="56" y="176" width="8" height="8" fill="#000000"/><rect x="64" y="176" width="8" height="8" fill="#000000"/><rect x="72" y="176" width="8" height="8" fill="#000000"/><rect x="80" y="176" width="8" height="8" fill="#000000"/><rect x="128" y="176" width="8" height="8" fill="#000000"/><rect x="136" y="176" width="8" height="8" fill="#000000"/><rect x="144" y="176" width="8" height="8" fill="#000000"/><rect x="160" y="176" width="8" height="8" fill="#000000"/><rect x="176" y="176" width="8" height="8" fill="#000000"/><rect x="192" y="176" width="8" height="8" fill="#000000"/><rect x="224" y="176" width="8" height="8" fill="#000000"/><rect x="32" y="184" width="8" height="8" fill="#000000"/><rect x="80" y="184" width="8" height="8" fill="#000000"/><rect x="120" y="184" width="8" height="8" fill="#000000"/><rect x="136" y="184" width="8" height="8" fill="#000000"/><rect x="144" y="184" width="8" height="8" fill="#000000"/><rect x="160" y="184" width="8" height="8" fill="#000000"/><rect x="192" y="184" width="8" height="8" fill="#000000"/><rect x="224" y="184" width="8" height="8" fill="#000000"/><rect x="32" y="192" width="8" height="8" fill="#000000"/><rect x="48" y="192" width="8" height="8" fill="#000000"/><rect x="56" y="192" width="8" height="8" fill="#000000"/><rect x="64" y="192" width="8" height="8" fill="#000000"/><rect x="80" y="192" width="8" height="8" fill="#000000"/><rect x="96" y="192" width="8" height="8" fill="#000000"/><rect x="104" y="192" width="8" height="8" fill="#000000"/><rect x="120" y="192" width="8" height="8" fill="#000000"/><rect x="128" y="192" width="8" height="8" fill="#000000"/><rect x="152" y="192" width="8" height="8" fill="#000000"/><rect x="160" y="192" width="8" height="8" fill="#000000"/><rect x="168" y="192" width="8" height="8" fill="#000000"/><rect x="176" y="192" width="8" height="8" fill="#000000"/><rect x="184" y="192" width="8" height="8" fill="#000000"/><rect x="192" y="192" width="8" height="8" fill="#000000"/><rect x="200" y="192" width="8" height="8" fill="#000000"/><rect x="32" y="200" width="8" height="8" fill="#000000"/><rect x="48" y="200" width="8" height="8" fill="#000000"/><rect x="56" y="200" width="8" height="8" fill="#000000"/><rect x="64" y="200" width="8" height="8" fill="#000000"/><rect x="80" y="200" width="8" height="8" fill="#000000"/><rect x="96" y="200" width="8" height="8" fill="#000000"/><rect x="104" y="200" width="8" height="8" fill="#000000"/><rect x="112" y="200" width="8" height="8" fill="#000000"/><rect x="128" y="200" width="8" height="8" fill="#000000"/><rect x="136" y="200" width="8" height="8" fill="#000000"/><rect x="160" y="200" width="8" height="8" fill="#000000"/><rect x="176" y="200" width="8" height="8" fill="#000000"/><rect x="184" y="200" width="8" height="8" fill="#000000"/><rect x="200" y="200" width="8" height="8" fill="#000000"/><rect x="216" y="200" width="8" height="8" fill="#000000"/><rect x="224" y="200" width="8" height="8" fill="#000000"/><rect x="32" y="208" width="8" height="8" fill="#000000"/><rect x="48" y="208" width="8" height="8" fill="#000000"/><rect x="56" y="208" width="8" height="8" fill="#000000"/><rect x="64" y="208" width="8" height="8" fill="#000000"/><rect x="80" y="208" width="8" height="8" fill="#000000"/><rect x="104" y="208" width="8" height="8" fill="#000000"/><rect x="120" y="208" width="8" height="8" fill="#000000"/><rect x="128" y="208" width="8" height="8" fill="#000000"/><rect x="144" y="208" width="8" height="8" fill="#000000"/><rect x="152" y="208" width="8" height="8" fill="#000000"/><rect x="160" y="208" width="8" height="8" fill="#000000"/><rect x="192" y="208" width="8" height="8" fill="#000000"/><rect x="208" y="208" width="8" height="8" fill="#000000"/><rect x="216" y="208" width="8" height="8" fill="#000000"/><rect x="224" y="208" width="8" height="8" fill="#000000"/><rect x="32" y="216" width="8" height="8" fill="#000000"/><rect x="80" y="216" width="8" height="8" fill="#000000"/><rect x="96" y="216" width="8" height="8" fill="#000000"/><rect x="112" y="216" width="8" height="8" fill="#000000"/><rect x="120" y="216" width="8" height="8" fill="#000000"/><rect x="152" y="216" width="8" height="8" fill="#000000"/><rect x="176" y="216" width="8" height="8" fill="#000000"/><rect x="184" y="216" width="8" height="8" fill="#000000"/><rect x="208" y="216" width="8" height="8" fill="#000000"/><rect x="216" y="216" width="8" height="8" fill="#000000"/><rect x="224" y="216" width="8" height="8" fill="#000000"/><rect x="32" y="224" width="8" height="8" fill="#000000"/><rect x="40" y="224" width="8" height="8" fill="#000000"/><rect x="48" y="224" width="8" height="8" fill="#000000"/><rect x="56" y="224" width="8" height="8" fill="#000000"/><rect x="64" y="224" width="8" height="8" fill="#000000"/><rect x="72" y="224" width="8" height="8" fill="#000000"/><rect x="80" y="224" width="8" height="8" fill="#000000"/><rect x="96" y="224" width="8" height="8" fill="#000000"/><rect x="112" y="224" width="8" height="8" fill="#000000"/><rect x="120" y="224" width="8" height="8" fill="#000000"/><rect x="144" y="224" width="8" height="8" fill="#000000"/><rect x="152" y="224" width="8" height="8" fill="#000000"/><rect x="160" y="224" width="8" height="8" fill="#000000"/><rect x="168" y="224" width="8" height="8" fill="#000000"/><rect x="184" y="224" width="8" height="8" fill="#000000"/><rect x="192" y="224" width="8" height="8" fill="#000000"/><rect x="224" y="224" width="8" height="8" fill="#000000"/>
</svg>
